<?xml version="1.0" encoding="utf-8"?>
<!-- Generator: Adobe Illustrator 17.0.0, SVG Export Plug-In . SVG Version: 6.00 Build 0)  -->
<!DOCTYPE svg PUBLIC "-//W3C//DTD SVG 1.1//EN" "http://www.w3.org/Graphics/SVG/1.1/DTD/svg11.dtd">
<svg version="1.1" id="Layer_1" xmlns="http://www.w3.org/2000/svg" xmlns:xlink="http://www.w3.org/1999/xlink" x="0px" y="0px"
	 width="190px" height="35.088px" viewBox="0 0 190 35.088" enable-background="new 0 0 190 35.088" xml:space="preserve">
<g>
	<path fill="#010202" d="M31.404,26.243l-5.461-3.51c-0.393-0.253-0.889-0.121-1.137,0.275c-1.422,2.277-3.526,3.889-7.445,3.889
		c-5.115,0-8.214-4.131-8.214-9.393s3-9.344,7.918-9.344c3.732,0,5.78,1.569,7.088,3.29c0.283,0.373,0.8,0.48,1.188,0.218
		l5.336-3.622c0.387-0.263,0.49-0.791,0.21-1.166c-2.821-3.776-7.147-6.491-13.969-6.491C7.967,0.389,0,7.422,0,17.505
		c0,10.082,8.016,17.164,17.411,17.164c6.486,0,10.996-2.201,14.26-7.247C31.925,27.029,31.798,26.496,31.404,26.243z"/>
	<path fill="#010202" d="M49.922,0.389c-9.64,0-17.952,7.033-17.952,17.116c0,10.082,8.312,17.164,17.952,17.164
		c9.639,0,17.951-7.082,17.951-17.164C67.873,7.422,59.561,0.389,49.922,0.389z M49.922,26.898c-5.607,0-8.804-4.131-8.804-9.393
		s3.197-9.344,8.804-9.344c5.606,0,8.803,4.082,8.803,9.344C58.725,22.767,55.528,26.898,49.922,26.898z"/>
	<path fill="#010202" d="M116.566,0.389l-11.211,12.783l-0.741-12.733c-0.049-0.344-0.246-0.296-0.443-0.05l-9.639,10.989
		L84.745,0.389c-0.197-0.246-0.394-0.294-0.443,0.05l-0.73,12.549L72.35,0.389c-0.197-0.246-0.394-0.294-0.443,0.05l-1.918,32.943
		c-0.028,0.467,0.33,0.846,0.797,0.846h7.06c0.467,0,0.868-0.379,0.893-0.846l0.741-13.466l3.461,3.872l-0.558,9.595
		c-0.027,0.467,0.33,0.846,0.798,0.846h7.06c0.468,0,0.868-0.379,0.893-0.846l0.39-7.084l2.975-4.648l2.824,4.36l0.407,7.372
		c0.026,0.467,0.426,0.846,0.893,0.846h7.109c0.468,0,0.825-0.379,0.798-0.846l-0.551-9.472l3.405-3.946l0.74,13.418
		c0.026,0.467,0.426,0.846,0.894,0.846h7.109c0.468,0,0.826-0.379,0.799-0.846l-1.918-32.943
		C116.96,0.095,116.763,0.143,116.566,0.389z"/>
	<path fill="#010202" d="M138.996,0.389c-9.64,0-17.951,7.033-17.951,17.116c0,10.082,8.311,17.164,17.951,17.164
		c9.64,0,17.951-7.082,17.951-17.164C156.947,7.422,148.635,0.389,138.996,0.389z M138.996,26.898c-5.607,0-8.804-4.131-8.804-9.393
		s3.197-9.344,8.804-9.344c5.607,0,8.804,4.082,8.804,9.344C147.799,22.767,144.602,26.898,138.996,26.898z"/>
	<path fill="#010202" d="M189.153,0.783h-6.716c-0.468,0-0.847,0.379-0.847,0.847v15.924L160.589,0.241
		c-0.54-0.442-0.689-0.196-0.689,0.099v33.04c0,0.468,0.379,0.847,0.848,0.847h6.715c0.468,0,0.848-0.379,0.848-0.847V17.554
		l21.001,17.264c0.54,0.441,0.688,0.294,0.688-0.1V1.629C190,1.161,189.621,0.783,189.153,0.783z"/>
</g>
</svg>
