<?xml version="1.0" encoding="utf-8"?>
<!-- Generator: Adobe Illustrator 21.0.2, SVG Export Plug-In . SVG Version: 6.00 Build 0)  -->
<svg version="1.1" id="Layer_1" xmlns="http://www.w3.org/2000/svg" xmlns:xlink="http://www.w3.org/1999/xlink" x="0px" y="0px"
	 viewBox="0 0 500 90" style="enable-background:new 0 0 500 90;" xml:space="preserve">
<style type="text/css">
	.st0{fill:#2B2C2B;}
</style>
<g id="Layer_2">
	<g>
		<path class="st0" d="M47,70.5v-36L31.3,59.1L14.6,32.7v37.9h-5V22h9.1l15.1,23.2L48.8,22h8.1v48.6C56.9,70.5,47,70.5,47,70.5z"/>
		<path class="st0" d="M102.6,55.7h-18l-5.2,14.6h-5.7l17.2-48.6h10.4l17.2,48.8h-10.7L102.6,55.7z M86.4,50.7h14.4l-7-20.4
			L86.4,50.7z"/>
		<path class="st0" d="M150.9,26.9v43.3H141V26.9h-12v-5.2h33.9v5.2H150.9z"/>
		<path class="st0" d="M201.3,26.9v43.3h-9.9V26.9h-12v-5.2h33.7v5.2H201.3z"/>
		<path class="st0" d="M261.9,57.5c0.8,1,1.6,2.1,2.6,3.1c1,1,2.1,2.1,3.1,2.9c1,0.8,2.6,1.6,4.2,2.1s3.4,0.8,5.5,0.8
			c1,0,2.3-0.3,3.4-0.5c1.3-0.3,2.3-0.5,3.1-1.3c1-0.5,1.6-1.3,2.3-2.1c0.5-0.8,0.8-1.8,0.8-3.1c0-1.3-0.3-2.3-1-3.4
			c-0.5-1-1.6-1.8-2.6-2.3c-1-0.8-2.3-1.3-3.7-1.8c-1.3-0.5-2.9-1-4.2-1.6c-1.8-0.5-3.4-1.3-5.2-1.8c-1.8-0.8-3.4-1.6-4.7-2.6
			c-1.3-1-2.6-2.3-3.4-3.9c-0.8-1.6-1.3-3.4-1.3-5.7c0-2.1,0.5-4.2,1.3-6c0.8-1.8,2.1-3.4,3.4-4.7c1.6-1.3,3.4-2.3,5.2-3.1
			s4.4-1,6.8-1c1,0,2.1,0,3.1,0.3c1,0.3,2.3,0.5,3.4,1c1,0.5,2.1,0.8,3.1,1.3c1,0.5,1.8,1,2.6,1.3v7.6l0,0c-1.3-2.1-3.1-3.7-5.5-5
			s-4.7-1.8-7.6-1.8c-1,0-2.3,0.3-3.4,0.5c-1,0.3-2.1,0.8-2.9,1.3c-0.8,0.5-1.6,1.3-1.8,2.1s-0.8,1.8-0.8,2.9v0.3c0,1,0.5,2.1,1,2.9
			c0.8,0.8,1.6,1.6,2.6,2.1c1,0.5,2.1,1,3.4,1.6c1.3,0.5,2.6,0.8,3.9,1.3c1.8,0.8,3.9,1.3,5.5,2.1c1.8,0.8,3.4,1.8,4.7,3.1
			c1.3,1.3,2.3,2.6,3.1,4.4c0.8,1.8,1.3,3.9,1.3,6.5c0,2.3-0.5,4.4-1.6,6c-1,1.8-2.3,3.1-4.2,4.4s-3.7,2.1-5.7,2.6
			c-2.1,0.5-4.4,0.8-6.8,0.8c-1.6,0-3.1-0.3-4.4-0.5c-1.3-0.3-2.6-0.8-3.9-1.3c-1.3-0.5-2.3-1-3.4-1.6c-1-0.5-2.1-1.3-2.9-1.8v-8.1
			H261.9z"/>
		<path class="st0" d="M348.6,70.5v-36l-15.7,24.5l-16.7-26.4v37.9h-5V22h9.1l15.1,23.2L350.4,22h8.1v48.6
			C358.5,70.5,348.6,70.5,348.6,70.5z"/>
		<path class="st0" d="M375.2,70.5V22h9.7v48.6C384.9,70.5,375.2,70.5,375.2,70.5z"/>
		<path class="st0" d="M423.5,26.9v43.3h-9.9V26.9h-12v-5.2h33.7v5.2H423.5z"/>
		<path class="st0" d="M481.7,70.5V47.8h-19.8v22.7H452V22h9.9v20.9h19.8V22h9.9v48.6H481.7z"/>
	</g>
</g>
</svg>
