<?xml version="1.0" encoding="utf-8"?>
<!-- Generator: Adobe Illustrator 16.0.0, SVG Export Plug-In . SVG Version: 6.00 Build 0)  -->
<!DOCTYPE svg PUBLIC "-//W3C//DTD SVG 1.1//EN" "http://www.w3.org/Graphics/SVG/1.1/DTD/svg11.dtd">
<svg version="1.1" id="Layer_1" xmlns="http://www.w3.org/2000/svg" xmlns:xlink="http://www.w3.org/1999/xlink" x="0px" y="0px"
	 width="190px" height="35.088px" viewBox="0 0 190 35.088" enable-background="new 0 0 190 35.088" xml:space="preserve">
<g>
	<path fill="#AAAAAA" d="M3.804,23.673c-0.303,4.311,1.482,5.928,3.772,5.928v0.235c0,0-2.593-0.101-4.243-0.101
		c-1.415,0-2.997,0.101-2.997,0.101v-0.235c1.515,0,2.728-0.876,3.064-4.614l0.101-1.347L3.804,23.673z M16.029,29.836l-4.041,0.606
		L4.983,9.395c-0.707-2.155-1.212-2.896-2.93-2.896V6.263c0,0,4.715,0.101,10.979,0.101c0,1.583,0.202,2.559,0.606,3.906
		l3.974,13.302L16.029,29.836z M21.147,10.068c-0.202-2.66-0.606-3.704-0.606-3.704c5.051,0,10.911-0.101,10.911-0.101v0.236
		c-1.718,0-2.593,0.606-2.526,2.997l1.516,17.108c0.202,2.391,0.808,2.997,2.525,2.997v0.235c0,0-2.626-0.101-6.297-0.101
		c-3.67,0-6.769,0.101-6.769,0.101v-0.235c1.549,0,2.66-1.078,2.391-4.345L21.147,10.068z"/>
	<path fill="#AAAAAA" d="M43.408,28.96c-1.313,0.472-2.896,1.55-5.22,1.55c-2.425,0-4.546-1.078-4.546-3.638
		c0-3.232,3.233-5.22,9.059-5.455l-0.034,0.303c-1.28,0.741-1.617,2.795-1.617,4.479c0,1.549,0.573,2.66,1.617,2.66
		c0.236,0,0.438-0.067,0.64-0.102L43.408,28.96z M34.753,17.41c0-2.391,3.368-3.907,6.904-4.311v0.235
		c-0.842,0.236-1.313,1.28-1.313,2.425c0,1.246,0.438,2.357,0.977,3.031c-0.909,0.707-2.492,1.179-3.57,1.179
		C35.932,19.969,34.753,18.925,34.753,17.41z M53.174,28.624c-0.64,1.111-2.324,1.784-4.344,1.784c-3.771,0-5.119-1.919-5.119-5.994
		c0-2.323,0.27-4.546,0.27-7.88c0-1.987-0.168-3.132-1.246-3.267v-0.235c0,0,0.303-0.034,0.707-0.034
		c5.792,0,7.678,2.155,7.678,6.769c0,3.199-0.337,4.748-0.337,7.105c0,1.752,0.573,2.189,1.28,2.189
		c0.337,0,0.741-0.236,0.977-0.539L53.174,28.624z"/>
	<path fill="#AAAAAA" d="M65.635,27.95c-1.145,1.616-3.368,2.56-5.758,2.56c-2.863,0-4.883-1.078-4.883-4.715V13.907h-1.28v-0.236
		c3.3,0,6.769-2.189,8.52-4.715l0.202,0.067v4.647h2.054v0.236h-2.054v12.965c0,1.078,0.64,1.55,1.347,1.55
		c0.539,0,1.212-0.202,1.717-0.606L65.635,27.95z"/>
	<path fill="#AAAAAA" d="M78.634,27.95c-1.145,1.616-3.368,2.56-5.758,2.56c-2.863,0-4.883-1.078-4.883-4.715V13.907h-1.28v-0.236
		c3.3,0,6.769-2.189,8.52-4.715l0.202,0.067v4.647h2.054v0.236h-2.054v12.965c0,1.078,0.64,1.55,1.347,1.55
		c0.539,0,1.212-0.202,1.717-0.606L78.634,27.95z"/>
	<path fill="#AAAAAA" d="M107.46,22.494c0,4.917-4.345,7.813-9.16,7.981V30.24c2.223-0.27,3.233-1.853,3.233-3.469
		c0-5.321-12.595-5.994-12.595-13.875c0-4.142,2.93-6.904,8.217-7.241v0.236c-1.213,0.303-2.088,1.448-2.088,2.963
		C95.067,14.446,107.46,14.244,107.46,22.494z M96.145,30.375c-2.223-0.236-3.166-0.909-6.836-0.909l-0.337-8.453h0.236
		c1.01,4.748,3.3,8.386,6.937,9.126V30.375z M99.311,5.892V5.656c2.021,0.168,4.074,0.674,6.466,0.674l-0.304,6.971h-0.235
		C104.732,9.833,102.645,6.364,99.311,5.892z"/>
	<path fill="#AAAAAA" d="M119.348,29.601v0.235c0,0-1.617-0.101-5.018-0.101c-3.368,0-5.691,0.101-5.691,0.101v-0.235
		c1.313,0,1.919-0.909,1.919-2.357V16.635c0-1.313-0.572-1.785-1.784-1.785l-0.135-0.202c5.118,0,9.396-1.65,9.396-1.65V28.32
		C118.034,29.331,118.606,29.601,119.348,29.601z M119.146,15.321c1.718-0.741,3.3-2.323,5.422-2.323
		c2.694,0,4.243,1.65,4.243,4.748v10.069c0,1.516,0.303,1.785,1.313,1.785v0.235c0,0-1.684-0.101-5.018-0.101
		c-3.132,0-5.019,0.101-5.019,0.101v-0.235c0.909,0,1.246-0.438,1.246-1.583V16.871c0-0.977-0.538-1.516-1.212-1.516
		c-0.303,0-0.707,0.101-0.977,0.202V15.321z M129.888,15.321c1.718-0.741,3.401-2.323,5.523-2.323c2.694,0,4.243,1.65,4.243,4.748
		v10.069c0,1.516,0.539,1.785,1.852,1.785v0.235c0,0-2.223-0.101-5.556-0.101c-3.132,0-5.019,0.101-5.019,0.101v-0.235
		c0.909,0,1.246-0.438,1.246-1.583V16.871c0-0.977-0.538-1.516-1.212-1.516c-0.304,0-0.809,0.101-1.078,0.202V15.321z"/>
	<path fill="#AAAAAA" d="M153.328,29.836c0,0-1.617-0.101-5.018-0.101c-3.368,0-5.691,0.101-5.691,0.101v-0.235
		c1.313,0,1.919-0.909,1.919-2.357V16.601c0-1.313-0.64-1.717-1.852-1.717l-0.067-0.236c5.118,0,9.396-1.65,9.396-1.65V28.32
		c0,1.011,0.572,1.28,1.313,1.28V29.836z M144.37,8.654c0-1.886,1.246-3.334,3.839-3.334s3.873,1.448,3.873,3.334
		c0,1.852-1.28,3.233-3.873,3.233S144.37,10.506,144.37,8.654z"/>
	<path fill="#AAAAAA" d="M167.033,27.95c-1.145,1.616-3.367,2.56-5.759,2.56c-2.862,0-4.883-1.078-4.883-4.715V13.907h-1.279v-0.236
		c3.3,0,6.769-2.189,8.52-4.715l0.202,0.067v4.647h2.055v0.236h-2.055v12.965c0,1.078,0.64,1.55,1.347,1.55
		c0.539,0,1.213-0.202,1.718-0.606L167.033,27.95z"/>
	<path fill="#AAAAAA" d="M178.686,29.836c0,0-1.751-0.101-5.052-0.101c-3.334,0-5.657,0.101-5.657,0.101v-0.235
		c1.313,0,1.919-0.909,1.919-2.357V8.216c0-1.313-0.64-1.717-1.852-1.717l-0.067-0.236c5.118,0,9.396-1.684,9.396-1.684V28.32
		c0,1.011,0.572,1.28,1.313,1.28V29.836z M178.786,15.321c1.718-0.741,3.233-2.323,5.354-2.323c2.694,0,4.243,1.65,4.243,4.748
		v10.069c0,1.516,0.539,1.785,1.853,1.785v0.235c0,0-2.223-0.101-5.557-0.101c-3.132,0-5.018,0.101-5.018,0.101v-0.235
		c0.909,0,1.246-0.438,1.246-1.583V16.871c0-0.977-0.539-1.516-1.213-1.516c-0.303,0-0.64,0.101-0.909,0.202V15.321z"/>
</g>
</svg>
