<?xml version="1.0" encoding="utf-8"?>
<!-- Generator: Adobe Illustrator 21.1.0, SVG Export Plug-In . SVG Version: 6.00 Build 0)  -->
<svg version="1.1" xmlns="http://www.w3.org/2000/svg" xmlns:xlink="http://www.w3.org/1999/xlink" x="0px" y="0px"
	 viewBox="0 0 190 35.1" style="enable-background:new 0 0 190 35.1;" xml:space="preserve">
<style type="text/css">
	.st0{display:none;}
	.st1{display:inline;}
	.st2{fill:#EBEDE6;}
	.st3{fill:#FFFFFF;}
</style>
<g id="Layer_1" class="st0">
	<g class="st1">
		<path class="st2" d="M3.8,23.7c-0.3,4.3,1.5,5.9,3.8,5.9v0.2c0,0-2.6-0.1-4.2-0.1c-1.4,0-3,0.1-3,0.1v-0.2c1.5,0,2.7-0.9,3.1-4.6
			l0.1-1.3L3.8,23.7z M16,29.8l-4,0.6l-7-21C4.3,7.2,3.8,6.5,2.1,6.5V6.3c0,0,4.7,0.1,11,0.1c0,1.6,0.2,2.6,0.6,3.9l4,13.3L16,29.8z
			 M21.1,10.1c-0.2-2.7-0.6-3.7-0.6-3.7c5.1,0,10.9-0.1,10.9-0.1v0.2c-1.7,0-2.6,0.6-2.5,3l1.5,17.1c0.2,2.4,0.8,3,2.5,3v0.2
			c0,0-2.6-0.1-6.3-0.1c-3.7,0-6.8,0.1-6.8,0.1v-0.2c1.5,0,2.7-1.1,2.4-4.3L21.1,10.1z"/>
		<path class="st2" d="M43.4,29c-1.3,0.5-2.9,1.5-5.2,1.5c-2.4,0-4.5-1.1-4.5-3.6c0-3.2,3.2-5.2,9.1-5.5l0,0.3
			c-1.3,0.7-1.6,2.8-1.6,4.5c0,1.5,0.6,2.7,1.6,2.7c0.2,0,0.4-0.1,0.6-0.1L43.4,29z M34.8,17.4c0-2.4,3.4-3.9,6.9-4.3v0.2
			c-0.8,0.2-1.3,1.3-1.3,2.4c0,1.2,0.4,2.4,1,3c-0.9,0.7-2.5,1.2-3.6,1.2C35.9,20,34.8,18.9,34.8,17.4z M53.2,28.6
			c-0.6,1.1-2.3,1.8-4.3,1.8c-3.8,0-5.1-1.9-5.1-6c0-2.3,0.3-4.5,0.3-7.9c0-2-0.2-3.1-1.2-3.3V13c0,0,0.3,0,0.7,0
			c5.8,0,7.7,2.2,7.7,6.8c0,3.2-0.3,4.7-0.3,7.1c0,1.8,0.6,2.2,1.3,2.2c0.3,0,0.7-0.2,1-0.5L53.2,28.6z"/>
		<path class="st2" d="M65.6,27.9c-1.1,1.6-3.4,2.6-5.8,2.6c-2.9,0-4.9-1.1-4.9-4.7V13.9h-1.3v-0.2c3.3,0,6.8-2.2,8.5-4.7L62.4,9
			v4.6h2.1v0.2h-2.1v13c0,1.1,0.6,1.5,1.3,1.5c0.5,0,1.2-0.2,1.7-0.6L65.6,27.9z"/>
		<path class="st2" d="M78.6,27.9c-1.1,1.6-3.4,2.6-5.8,2.6c-2.9,0-4.9-1.1-4.9-4.7V13.9h-1.3v-0.2c3.3,0,6.8-2.2,8.5-4.7L75.4,9
			v4.6h2.1v0.2h-2.1v13c0,1.1,0.6,1.5,1.3,1.5c0.5,0,1.2-0.2,1.7-0.6L78.6,27.9z"/>
		<path class="st2" d="M107.5,22.5c0,4.9-4.3,7.8-9.2,8v-0.2c2.2-0.3,3.2-1.9,3.2-3.5c0-5.3-12.6-6-12.6-13.9c0-4.1,2.9-6.9,8.2-7.2
			v0.2c-1.2,0.3-2.1,1.4-2.1,3C95.1,14.4,107.5,14.2,107.5,22.5z M96.1,30.4c-2.2-0.2-3.2-0.9-6.8-0.9L89,21h0.2
			c1,4.7,3.3,8.4,6.9,9.1V30.4z M99.3,5.9V5.7c2,0.2,4.1,0.7,6.5,0.7l-0.3,7h-0.2C104.7,9.8,102.6,6.4,99.3,5.9z"/>
		<path class="st2" d="M119.3,29.6v0.2c0,0-1.6-0.1-5-0.1c-3.4,0-5.7,0.1-5.7,0.1v-0.2c1.3,0,1.9-0.9,1.9-2.4V16.6
			c0-1.3-0.6-1.8-1.8-1.8l-0.1-0.2c5.1,0,9.4-1.6,9.4-1.6v15.3C118,29.3,118.6,29.6,119.3,29.6z M119.1,15.3
			c1.7-0.7,3.3-2.3,5.4-2.3c2.7,0,4.2,1.6,4.2,4.7v10.1c0,1.5,0.3,1.8,1.3,1.8v0.2c0,0-1.7-0.1-5-0.1c-3.1,0-5,0.1-5,0.1v-0.2
			c0.9,0,1.2-0.4,1.2-1.6V16.9c0-1-0.5-1.5-1.2-1.5c-0.3,0-0.7,0.1-1,0.2L119.1,15.3L119.1,15.3z M129.9,15.3
			c1.7-0.7,3.4-2.3,5.5-2.3c2.7,0,4.2,1.6,4.2,4.7v10.1c0,1.5,0.5,1.8,1.9,1.8v0.2c0,0-2.2-0.1-5.6-0.1c-3.1,0-5,0.1-5,0.1v-0.2
			c0.9,0,1.2-0.4,1.2-1.6V16.9c0-1-0.5-1.5-1.2-1.5c-0.3,0-0.8,0.1-1.1,0.2L129.9,15.3L129.9,15.3z"/>
		<path class="st2" d="M153.3,29.8c0,0-1.6-0.1-5-0.1c-3.4,0-5.7,0.1-5.7,0.1v-0.2c1.3,0,1.9-0.9,1.9-2.4V16.6
			c0-1.3-0.6-1.7-1.9-1.7l-0.1-0.2c5.1,0,9.4-1.6,9.4-1.6v15.3c0,1,0.6,1.3,1.3,1.3V29.8z M144.4,8.7c0-1.9,1.2-3.3,3.8-3.3
			s3.9,1.4,3.9,3.3c0,1.9-1.3,3.2-3.9,3.2S144.4,10.5,144.4,8.7z"/>
		<path class="st2" d="M167,27.9c-1.1,1.6-3.4,2.6-5.8,2.6c-2.9,0-4.9-1.1-4.9-4.7V13.9h-1.3v-0.2c3.3,0,6.8-2.2,8.5-4.7l0.2,0.1
			v4.6h2.1v0.2h-2.1v13c0,1.1,0.6,1.5,1.3,1.5c0.5,0,1.2-0.2,1.7-0.6L167,27.9z"/>
		<path class="st2" d="M178.7,29.8c0,0-1.8-0.1-5.1-0.1c-3.3,0-5.7,0.1-5.7,0.1v-0.2c1.3,0,1.9-0.9,1.9-2.4v-19
			c0-1.3-0.6-1.7-1.9-1.7L168,6.3c5.1,0,9.4-1.7,9.4-1.7v23.7c0,1,0.6,1.3,1.3,1.3V29.8z M178.8,15.3c1.7-0.7,3.2-2.3,5.4-2.3
			c2.7,0,4.2,1.6,4.2,4.7v10.1c0,1.5,0.5,1.8,1.9,1.8v0.2c0,0-2.2-0.1-5.6-0.1c-3.1,0-5,0.1-5,0.1v-0.2c0.9,0,1.2-0.4,1.2-1.6V16.9
			c0-1-0.5-1.5-1.2-1.5c-0.3,0-0.6,0.1-0.9,0.2L178.8,15.3L178.8,15.3z"/>
	</g>
</g>
<g id="Layer_2">
	<g>
		<path class="st3" d="M16.6,26.9V13.1l-6,9.4L4.2,12.4v14.5H2.3V8.3h3.5l5.8,8.9l5.7-8.9h3.1v18.6H16.6z"/>
		<path class="st3" d="M37.9,21.2H31l-2,5.6h-2.2l6.6-18.6h4L44,26.9h-4.1L37.9,21.2z M31.7,19.3h5.5l-2.7-7.8L31.7,19.3z"/>
		<path class="st3" d="M56.4,10.2v16.6h-3.8V10.2H48v-2H61v2H56.4z"/>
		<path class="st3" d="M75.7,10.2v16.6h-3.8V10.2h-4.6v-2h12.9v2H75.7z"/>
		<path class="st3" d="M98.9,21.9c0.3,0.4,0.6,0.8,1,1.2c0.4,0.4,0.8,0.8,1.2,1.1s1,0.6,1.6,0.8c0.6,0.2,1.3,0.3,2.1,0.3
			c0.4,0,0.9-0.1,1.3-0.2c0.5-0.1,0.9-0.2,1.2-0.5c0.4-0.2,0.6-0.5,0.9-0.8c0.2-0.3,0.3-0.7,0.3-1.2c0-0.5-0.1-0.9-0.4-1.3
			c-0.2-0.4-0.6-0.7-1-0.9c-0.4-0.3-0.9-0.5-1.4-0.7c-0.5-0.2-1.1-0.4-1.6-0.6c-0.7-0.2-1.3-0.5-2-0.7c-0.7-0.3-1.3-0.6-1.8-1
			c-0.5-0.4-1-0.9-1.3-1.5c-0.3-0.6-0.5-1.3-0.5-2.2c0-0.8,0.2-1.6,0.5-2.3c0.3-0.7,0.8-1.3,1.3-1.8c0.6-0.5,1.3-0.9,2-1.2
			s1.7-0.4,2.6-0.4c0.4,0,0.8,0,1.2,0.1c0.4,0.1,0.9,0.2,1.3,0.4s0.8,0.3,1.2,0.5c0.4,0.2,0.7,0.4,1,0.5l0,2.9h0
			c-0.5-0.8-1.2-1.4-2.1-1.9c-0.9-0.5-1.8-0.7-2.9-0.7c-0.4,0-0.9,0.1-1.3,0.2c-0.4,0.1-0.8,0.3-1.1,0.5c-0.3,0.2-0.6,0.5-0.7,0.8
			s-0.3,0.7-0.3,1.1v0.1c0,0.4,0.2,0.8,0.4,1.1c0.3,0.3,0.6,0.6,1,0.8c0.4,0.2,0.8,0.4,1.3,0.6c0.5,0.2,1,0.3,1.5,0.5
			c0.7,0.3,1.5,0.5,2.1,0.8c0.7,0.3,1.3,0.7,1.8,1.2c0.5,0.5,0.9,1,1.2,1.7c0.3,0.7,0.5,1.5,0.5,2.5c0,0.9-0.2,1.7-0.6,2.3
			c-0.4,0.7-0.9,1.2-1.6,1.7s-1.4,0.8-2.2,1c-0.8,0.2-1.7,0.3-2.6,0.3c-0.6,0-1.2-0.1-1.7-0.2c-0.5-0.1-1-0.3-1.5-0.5
			c-0.5-0.2-0.9-0.4-1.3-0.6c-0.4-0.2-0.8-0.5-1.1-0.7V21.9z"/>
		<path class="st3" d="M132.1,26.9V13.1l-6,9.4l-6.4-10.1v14.5h-1.9V8.3h3.5l5.8,8.9l5.7-8.9h3.1v18.6H132.1z"/>
		<path class="st3" d="M142.3,26.9V8.3h3.7v18.6H142.3z"/>
		<path class="st3" d="M160.8,10.2v16.6h-3.8V10.2h-4.6v-2h12.9v2H160.8z"/>
		<path class="st3" d="M183.1,26.9v-8.7h-7.6v8.7h-3.8V8.3h3.8v8h7.6v-8h3.8v18.6H183.1z"/>
	</g>
</g>
</svg>
