<?xml version="1.0" encoding="utf-8"?>
<!-- Generator: Adobe Illustrator 16.0.0, SVG Export Plug-In . SVG Version: 6.00 Build 0)  -->
<!DOCTYPE svg PUBLIC "-//W3C//DTD SVG 1.1//EN" "http://www.w3.org/Graphics/SVG/1.1/DTD/svg11.dtd">
<svg version="1.1" id="Layer_1" xmlns="http://www.w3.org/2000/svg" xmlns:xlink="http://www.w3.org/1999/xlink" x="0px" y="0px"
	 width="190px" height="35.088px" viewBox="0 0 190 35.088" enable-background="new 0 0 190 35.088" xml:space="preserve">
<g>
	<path fill="#EAEAEA" d="M3.508,23.631c-0.303,4.31,1.481,5.928,3.771,5.928v0.235c0,0-2.593-0.102-4.243-0.102
		c-1.415,0-2.998,0.102-2.998,0.102v-0.235c1.516,0,2.728-0.875,3.065-4.615l0.101-1.347L3.508,23.631z M15.733,29.794L11.692,30.4
		L4.687,9.351c-0.708-2.156-1.212-2.896-2.93-2.896V6.219c0,0,4.715,0.101,10.979,0.101c0,1.583,0.202,2.56,0.606,3.907
		l3.974,13.303L15.733,29.794z M20.853,10.024C20.65,7.364,20.247,6.32,20.247,6.32c5.052,0,10.912-0.101,10.912-0.101v0.236
		c-1.717,0-2.593,0.606-2.526,2.997l1.516,17.11c0.202,2.391,0.808,2.997,2.526,2.997v0.235c0,0-2.627-0.102-6.298-0.102
		s-6.769,0.102-6.769,0.102v-0.235c1.549,0,2.66-1.079,2.391-4.345L20.853,10.024z"/>
	<path fill="#EAEAEA" d="M43.116,28.917c-1.313,0.473-2.896,1.551-5.22,1.551c-2.425,0-4.547-1.078-4.547-3.638
		c0-3.233,3.233-5.22,9.06-5.455l-0.034,0.303c-1.28,0.741-1.617,2.795-1.617,4.479c0,1.551,0.572,2.661,1.617,2.661
		c0.235,0,0.438-0.066,0.64-0.102L43.116,28.917z M34.46,17.366c0-2.391,3.368-3.907,6.904-4.311v0.236
		c-0.842,0.236-1.313,1.28-1.313,2.425c0,1.246,0.438,2.357,0.977,3.031c-0.909,0.707-2.492,1.18-3.57,1.18
		C35.64,19.927,34.46,18.882,34.46,17.366z M52.883,28.582c-0.64,1.11-2.324,1.784-4.345,1.784c-3.772,0-5.119-1.919-5.119-5.994
		c0-2.323,0.27-4.547,0.27-7.881c0-1.987-0.168-3.132-1.247-3.267v-0.236c0,0,0.303-0.034,0.708-0.034
		c5.793,0,7.679,2.156,7.679,6.769c0,3.199-0.337,4.749-0.337,7.106c0,1.752,0.572,2.189,1.28,2.189c0.337,0,0.741-0.236,0.977-0.54
		L52.883,28.582z"/>
	<path fill="#EAEAEA" d="M65.346,27.908c-1.145,1.615-3.368,2.56-5.759,2.56c-2.863,0-4.884-1.078-4.884-4.715V13.864h-1.28v-0.236
		c3.301,0,6.77-2.188,8.521-4.715l0.202,0.067v4.647h2.055v0.236h-2.055V26.83c0,1.078,0.64,1.55,1.347,1.55
		c0.539,0,1.212-0.203,1.718-0.606L65.346,27.908z"/>
	<path fill="#EAEAEA" d="M78.346,27.908c-1.145,1.615-3.368,2.56-5.759,2.56c-2.863,0-4.884-1.078-4.884-4.715V13.864h-1.28v-0.236
		c3.301,0,6.77-2.188,8.521-4.715l0.203,0.067v4.647h2.054v0.236h-2.054V26.83c0,1.078,0.64,1.55,1.347,1.55
		c0.539,0,1.213-0.203,1.718-0.606L78.346,27.908z"/>
	<path fill="#EAEAEA" d="M107.175,22.452c0,4.917-4.345,7.814-9.16,7.981v-0.236c2.222-0.269,3.232-1.852,3.232-3.468
		c0-5.322-12.595-5.995-12.595-13.875c0-4.143,2.929-6.905,8.217-7.242v0.236c-1.213,0.303-2.088,1.448-2.088,2.963
		C94.781,14.403,107.175,14.201,107.175,22.452z M95.858,30.333c-2.223-0.235-3.166-0.909-6.837-0.909l-0.336-8.454h0.236
		c1.01,4.749,3.3,8.387,6.937,9.128V30.333z M99.024,5.849V5.612c2.021,0.168,4.074,0.674,6.467,0.674l-0.303,6.972h-0.236
		C104.448,9.789,102.358,6.32,99.024,5.849z"/>
	<path fill="#EAEAEA" d="M119.064,29.559v0.235c0,0-1.617-0.102-5.02-0.102c-3.367,0-5.69,0.102-5.69,0.102v-0.235
		c1.314,0,1.921-0.91,1.921-2.358V16.592c0-1.313-0.574-1.785-1.787-1.785l-0.134-0.203c5.119,0,9.396-1.65,9.396-1.65v15.324
		C117.75,29.288,118.324,29.559,119.064,29.559z M118.861,15.279c1.719-0.741,3.302-2.324,5.422-2.324
		c2.696,0,4.245,1.65,4.245,4.75v10.069c0,1.515,0.303,1.785,1.313,1.785v0.235c0,0-1.685-0.102-5.019-0.102
		c-3.132,0-5.018,0.102-5.018,0.102v-0.235c0.909,0,1.245-0.438,1.245-1.583V16.828c0-0.977-0.537-1.516-1.213-1.516
		c-0.301,0-0.706,0.102-0.977,0.202V15.279z M129.606,15.279c1.717-0.741,3.401-2.324,5.521-2.324c2.696,0,4.245,1.65,4.245,4.75
		v10.069c0,1.515,0.539,1.785,1.852,1.785v0.235c0,0-2.223-0.102-5.557-0.102c-3.132,0-5.018,0.102-5.018,0.102v-0.235
		c0.909,0,1.245-0.438,1.245-1.583V16.828c0-0.977-0.537-1.516-1.213-1.516c-0.303,0-0.808,0.102-1.076,0.202V15.279z"/>
	<path fill="#EAEAEA" d="M153.047,29.794c0,0-1.615-0.102-5.017-0.102c-3.368,0-5.691,0.102-5.691,0.102v-0.235
		c1.312,0,1.919-0.91,1.919-2.358V16.559c0-1.313-0.639-1.718-1.852-1.718l-0.067-0.236c5.119,0,9.396-1.65,9.396-1.65v15.324
		c0,1.01,0.571,1.28,1.312,1.28V29.794z M144.089,8.61c0-1.886,1.247-3.334,3.839-3.334c2.595,0,3.874,1.448,3.874,3.334
		c0,1.853-1.279,3.233-3.874,3.233C145.336,11.843,144.089,10.462,144.089,8.61z"/>
	<path fill="#EAEAEA" d="M166.755,27.908c-1.144,1.615-3.367,2.56-5.758,2.56c-2.863,0-4.884-1.078-4.884-4.715V13.864h-1.279
		v-0.236c3.3,0,6.769-2.188,8.521-4.715l0.202,0.067v4.647h2.055v0.236h-2.055V26.83c0,1.078,0.639,1.55,1.347,1.55
		c0.539,0,1.213-0.203,1.717-0.606L166.755,27.908z"/>
	<path fill="#EAEAEA" d="M178.409,29.794c0,0-1.752-0.102-5.052-0.102c-3.335,0-5.658,0.102-5.658,0.102v-0.235
		c1.313,0,1.92-0.91,1.92-2.358V8.172c0-1.313-0.641-1.717-1.854-1.717l-0.066-0.236c5.119,0,9.396-1.684,9.396-1.684v23.744
		c0,1.01,0.574,1.28,1.314,1.28V29.794z M178.509,15.279c1.72-0.741,3.235-2.324,5.355-2.324c2.695,0,4.244,1.65,4.244,4.75v10.069
		c0,1.515,0.539,1.785,1.852,1.785v0.235c0,0-2.222-0.102-5.557-0.102c-3.132,0-5.018,0.102-5.018,0.102v-0.235
		c0.909,0,1.245-0.438,1.245-1.583V16.828c0-0.977-0.539-1.516-1.213-1.516c-0.303,0-0.639,0.102-0.909,0.202V15.279z"/>
</g>
</svg>
