<?xml version="1.0" encoding="utf-8"?>
<!-- Generator: Adobe Illustrator 16.2.1, SVG Export Plug-In . SVG Version: 6.00 Build 0)  -->
<!DOCTYPE svg PUBLIC "-//W3C//DTD SVG 1.1//EN" "http://www.w3.org/Graphics/SVG/1.1/DTD/svg11.dtd">
<svg version="1.1" id="Layer_1" xmlns="http://www.w3.org/2000/svg" xmlns:xlink="http://www.w3.org/1999/xlink" x="0px" y="0px"
	 width="841.89px" height="595.28px" viewBox="0 0 841.89 595.28" enable-background="new 0 0 841.89 595.28" xml:space="preserve">
<g>
	<path d="M197.277,305.203l-19.161-12.316c-1.38-0.888-3.119-0.426-3.988,0.966c-4.988,7.989-12.372,13.648-26.124,13.648
		c-17.949,0-28.822-14.495-28.822-32.961c0-18.466,10.528-32.789,27.784-32.789c13.097,0,20.281,5.507,24.871,11.544
		c0.993,1.309,2.808,1.686,4.167,0.764l18.724-12.71c1.359-0.922,1.718-2.776,0.736-4.091c-9.9-13.25-25.08-22.776-49.015-22.776
		c-31.409,0-59.366,24.678-59.366,60.058c0,35.378,28.129,60.228,61.093,60.228c22.76,0,38.586-7.722,50.036-25.43
		C199.105,307.959,198.659,306.091,197.277,305.203z"/>
	<path d="M262.256,214.482c-33.826,0-62.992,24.678-62.992,60.058c0,35.378,29.167,60.228,62.992,60.228
		c33.823,0,62.988-24.85,62.988-60.228C325.244,239.16,296.079,214.482,262.256,214.482z M262.256,307.501
		c-19.676,0-30.894-14.495-30.894-32.961c0-18.466,11.218-32.789,30.894-32.789c19.671,0,30.889,14.322,30.889,32.789
		C293.145,293.006,281.927,307.501,262.256,307.501z"/>
	<path d="M496.105,214.482l-39.338,44.855l-2.601-44.68c-0.173-1.208-0.862-1.037-1.553-0.175l-33.821,38.561l-34.345-38.561
		c-0.69-0.862-1.382-1.033-1.555,0.175l-2.562,44.034l-39.375-44.208c-0.692-0.862-1.382-1.033-1.555,0.175l-6.729,115.594
		c-0.097,1.638,1.157,2.967,2.798,2.967h24.774c1.64,0,3.045-1.329,3.134-2.967l2.599-47.253l12.145,13.586l-1.959,33.667
		c-0.095,1.638,1.159,2.967,2.801,2.967h24.772c1.642,0,3.044-1.329,3.134-2.967l1.368-24.858l10.438-16.31l9.909,15.3l1.428,25.868
		c0.09,1.638,1.495,2.967,3.135,2.967h24.946c1.643,0,2.896-1.329,2.799-2.967l-1.934-33.236l11.949-13.847l2.596,47.083
		c0.09,1.638,1.495,2.967,3.137,2.967h24.944c1.643,0,2.897-1.329,2.802-2.967l-6.731-115.594
		C497.488,213.449,496.796,213.62,496.105,214.482z"/>
	<path d="M574.81,214.482c-33.826,0-62.99,24.678-62.99,60.058c0,35.378,29.164,60.228,62.99,60.228
		c33.825,0,62.989-24.85,62.989-60.228C637.799,239.16,608.635,214.482,574.81,214.482z M574.81,307.501
		c-19.674,0-30.892-14.495-30.892-32.961c0-18.466,11.218-32.789,30.892-32.789c19.673,0,30.891,14.322,30.891,32.789
		C605.7,293.006,594.482,307.501,574.81,307.501z"/>
	<path d="M750.81,215.864h-23.567c-1.642,0-2.971,1.329-2.971,2.971v55.877l-73.693-60.748c-1.896-1.552-2.417-0.688-2.417,0.348
		v115.935c0,1.642,1.33,2.971,2.974,2.971h23.564c1.643,0,2.974-1.329,2.974-2.971v-55.535l73.692,60.578
		c1.896,1.548,2.415,1.032,2.415-0.35V218.835C753.78,217.193,752.451,215.864,750.81,215.864z"/>
</g>
</svg>
