<?xml version="1.0" encoding="utf-8"?>
<!-- Generator: Adobe Illustrator 16.0.0, SVG Export Plug-In . SVG Version: 6.00 Build 0)  -->
<!DOCTYPE svg PUBLIC "-//W3C//DTD SVG 1.1//EN" "http://www.w3.org/Graphics/SVG/1.1/DTD/svg11.dtd">
<svg version="1.1" id="Layer_1" xmlns="http://www.w3.org/2000/svg" xmlns:xlink="http://www.w3.org/1999/xlink" x="0px" y="0px"
	 width="841.891px" height="595.279px" viewBox="0 0 841.891 595.279" enable-background="new 0 0 841.891 595.279"
	 xml:space="preserve">
<g>
	<path d="M100.368,300.126c-1.058,15.053,5.174,20.697,13.171,20.697v0.824c0,0-9.055-0.354-14.817-0.354
		c-4.939,0-10.467,0.354-10.467,0.354v-0.824c5.292,0,9.526-3.057,10.702-16.111l0.353-4.703L100.368,300.126z M143.057,321.648
		l-14.112,2.117l-24.46-73.5c-2.47-7.526-4.233-10.114-10.231-10.114v-0.822c0,0,16.464,0.353,38.338,0.353
		c0,5.527,0.706,8.938,2.117,13.642l13.876,46.451L143.057,321.648z M160.932,252.617c-0.706-9.291-2.117-12.937-2.117-12.937
		c17.64,0,38.102-0.353,38.102-0.353v0.822c-5.998,0-9.055,2.117-8.82,10.467l5.292,59.74c0.706,8.35,2.822,10.467,8.82,10.467
		v0.824c0,0-9.173-0.354-21.991-0.354s-23.637,0.354-23.637,0.354v-0.824c5.409,0,9.29-3.764,8.35-15.17L160.932,252.617z"/>
	<path d="M238.672,318.589c-4.586,1.646-10.113,5.41-18.228,5.41c-8.467,0-15.876-3.764-15.876-12.701
		c0-11.289,11.29-18.228,31.634-19.05l-0.117,1.059c-4.469,2.586-5.645,9.759-5.645,15.64c0,5.41,1.999,9.291,5.645,9.291
		c0.823,0,1.528-0.236,2.234-0.354L238.672,318.589z M208.448,278.254c0-8.35,11.76-13.643,24.108-15.053v0.822
		c-2.94,0.823-4.586,4.469-4.586,8.467c0,4.352,1.529,8.232,3.411,10.584c-3.175,2.471-8.703,4.117-12.466,4.117
		C212.565,287.191,208.448,283.545,208.448,278.254z M272.776,317.413c-2.234,3.881-8.114,6.232-15.17,6.232
		c-13.171,0-17.875-6.703-17.875-20.932c0-8.115,0.94-15.876,0.94-27.519c0-6.938-0.588-10.937-4.351-11.406v-0.824
		c0,0,1.059-0.117,2.47-0.117c20.227,0,26.812,7.526,26.812,23.638c0,11.172-1.176,16.581-1.176,24.813
		c0,6.115,1.999,7.645,4.469,7.645c1.176,0,2.587-0.824,3.41-1.883L272.776,317.413z"/>
	<path d="M316.291,315.062c-3.998,5.645-11.76,8.938-20.109,8.938c-9.996,0-17.052-3.764-17.052-16.465v-41.511h-4.469v-0.824
		c11.524,0,23.637-7.644,29.752-16.463l0.706,0.234v16.229h7.174v0.824h-7.174v45.275c0,3.764,2.234,5.41,4.704,5.41
		c1.881,0,4.233-0.705,5.998-2.117L316.291,315.062z"/>
	<path d="M361.686,315.062c-3.998,5.645-11.76,8.938-20.109,8.938c-9.996,0-17.052-3.764-17.052-16.465v-41.511h-4.469v-0.824
		c11.524,0,23.637-7.644,29.752-16.463l0.706,0.234v16.229h7.174v0.824h-7.174v45.275c0,3.764,2.234,5.41,4.704,5.41
		c1.881,0,4.233-0.705,5.998-2.117L361.686,315.062z"/>
	<path d="M462.352,296.01c0,17.168-15.17,27.284-31.987,27.872v-0.824c7.762-0.939,11.29-6.467,11.29-12.113
		c0-18.58-43.982-20.931-43.982-48.45c0-14.465,10.231-24.108,28.694-25.284v0.823c-4.233,1.059-7.292,5.057-7.292,10.349
		C419.075,267.904,462.352,267.199,462.352,296.01z M422.839,323.529c-7.761-0.822-11.054-3.176-23.873-3.176l-1.176-29.517h0.823
		c3.528,16.582,11.524,29.283,24.225,31.871V323.529z M433.893,238.034v-0.823c7.056,0.588,14.229,2.352,22.579,2.352l-1.059,24.344
		h-0.823C452.827,251.793,445.536,239.68,433.893,238.034z"/>
	<path d="M503.868,320.823v0.824c0,0-5.646-0.354-17.522-0.354c-11.76,0-19.874,0.354-19.874,0.354v-0.824
		c4.586,0,6.703-3.176,6.703-8.232v-37.042c0-4.587-2-6.232-6.233-6.232l-0.47-0.707c17.875,0,32.81-5.762,32.81-5.762v53.507
		C499.281,319.882,501.28,320.823,503.868,320.823z M503.162,270.962c5.998-2.587,11.525-8.114,18.934-8.114
		c9.408,0,14.817,5.762,14.817,16.582v35.162c0,5.291,1.059,6.232,4.587,6.232v0.824c0,0-5.88-0.354-17.522-0.354
		c-10.937,0-17.522,0.354-17.522,0.354v-0.824c3.175,0,4.352-1.529,4.352-5.527v-38.925c0-3.41-1.882-5.291-4.234-5.291
		c-1.058,0-2.469,0.353-3.41,0.705V270.962z M540.677,270.962c5.997-2.587,11.877-8.114,19.286-8.114
		c9.408,0,14.817,5.762,14.817,16.582v35.162c0,5.291,1.882,6.232,6.468,6.232v0.824c0,0-7.762-0.354-19.403-0.354
		c-10.937,0-17.522,0.354-17.522,0.354v-0.824c3.175,0,4.351-1.529,4.351-5.527v-38.925c0-3.41-1.881-5.291-4.233-5.291
		c-1.059,0-2.822,0.353-3.763,0.705V270.962z"/>
	<path d="M622.532,321.648c0,0-5.646-0.354-17.522-0.354c-11.76,0-19.874,0.354-19.874,0.354v-0.824
		c4.586,0,6.703-3.176,6.703-8.232V275.43c0-4.586-2.234-5.997-6.469-5.997l-0.234-0.824c17.875,0,32.81-5.762,32.81-5.762v53.507
		c0,3.527,1.999,4.469,4.587,4.469V321.648z M591.251,247.677c0-6.586,4.351-11.643,13.406-11.643
		c9.055,0,13.523,5.057,13.523,11.643c0,6.468-4.469,11.289-13.523,11.289C595.601,258.967,591.251,254.145,591.251,247.677z"/>
	<path d="M670.396,315.062c-3.999,5.645-11.761,8.938-20.11,8.938c-9.995,0-17.052-3.764-17.052-16.465v-41.511h-4.469v-0.824
		c11.525,0,23.638-7.644,29.753-16.463l0.706,0.234v16.229h7.173v0.824h-7.173v45.275c0,3.764,2.234,5.41,4.703,5.41
		c1.882,0,4.234-0.705,5.998-2.117L670.396,315.062z"/>
	<path d="M711.087,321.648c0,0-6.115-0.354-17.641-0.354c-11.642,0-19.756,0.354-19.756,0.354v-0.824
		c4.586,0,6.703-3.176,6.703-8.232v-66.443c0-4.586-2.234-5.998-6.469-5.998l-0.234-0.822c17.875,0,32.81-5.881,32.81-5.881v82.908
		c0,3.527,1.999,4.469,4.587,4.469V321.648z M711.439,270.962c5.998-2.587,11.29-8.114,18.698-8.114
		c9.408,0,14.817,5.762,14.817,16.582v35.162c0,5.291,1.882,6.232,6.468,6.232v0.824c0,0-7.761-0.354-19.403-0.354
		c-10.937,0-17.522,0.354-17.522,0.354v-0.824c3.175,0,4.352-1.529,4.352-5.527v-38.925c0-3.41-1.882-5.291-4.234-5.291
		c-1.058,0-2.234,0.353-3.175,0.705V270.962z"/>
</g>
</svg>
